<svg xmlns="http://www.w3.org/2000/svg" viewBox="0 0 1019.63 1016.05"><defs><style>.a{fill:#1d71b8;}.b{fill:#1d1d1b;}.c{font-size:140px;font-family:MyriadPro-Regular, Myriad Pro;}.c,.j{fill:#fff;}.d{letter-spacing:-0.01em;}.e{letter-spacing:-0.01em;}.f{letter-spacing:0.01em;}.g,.h,.i{fill:none;stroke:#000;stroke-miterlimit:10;stroke-width:30px;}.h{stroke-dasharray:40.48 40.48;}.i{stroke-dasharray:40.57 40.57;}</style></defs><title>logo</title><rect class="a" width="1019.63" height="1016.05"/><rect class="b" x="102.85" y="71.77" width="415.9" height="207.95" rx="50.31"/><rect class="b" x="77.36" y="729.16" width="861.32" height="207.95" rx="50.31"/><text class="c" transform="translate(148.47 219.47)">$gd</text><text class="c" transform="translate(125.66 879.54)"><tspan class="d">L</tspan><tspan x="64.12" y="0">o</tspan><tspan class="e" x="140.98" y="0">r</tspan><tspan x="185.36" y="0">em </tspan><tspan class="f" x="401.94" y="0">I</tspan><tspan x="436.79" y="0">psum</tspan></text><line class="g" x1="517.41" y1="175.75" x2="537.41" y2="175.75"/><line class="h" x1="577.89" y1="175.75" x2="800.5" y2="175.75"/><line class="g" x1="820.74" y1="175.75" x2="840.74" y2="175.75"/><line class="g" x1="598.26" y1="489.8" x2="618.26" y2="489.8"/><line class="i" x1="658.82" y1="489.8" x2="800.81" y2="489.8"/><line class="g" x1="821.09" y1="489.8" x2="841.09" y2="489.8"/><line class="g" x1="168.94" y1="489.8" x2="188.94" y2="489.8"/><line class="i" x1="229.51" y1="489.8" x2="371.49" y2="489.8"/><line class="g" x1="391.77" y1="489.8" x2="411.77" y2="489.8"/><line class="g" x1="836.09" y1="170.9" x2="836.09" y2="190.9"/><line class="h" x1="836.09" y1="231.38" x2="836.09" y2="453.99"/><line class="g" x1="836.09" y1="474.23" x2="836.09" y2="494.23"/><line class="g" x1="173.63" y1="484.91" x2="173.63" y2="504.91"/><line class="h" x1="173.63" y1="545.39" x2="173.63" y2="768"/><line class="g" x1="173.63" y1="788.24" x2="173.63" y2="808.24"/><path class="j" d="M492,321.67c-10.39.68-23.18,2.64-24.7,3.78s-1.53.91-1.53,13.17l0,11.25-.56.23c-.31.1-2.49.79-4.87,1.52a132.8,132.8,0,0,0-14.09,5.15c-3.46,1.48-10.66,5.06-12.82,6.35l-1.53.91-7.86-7.81c-4.32-4.32-8.13-8-8.43-8.13a5.07,5.07,0,0,0-3.45.08c-1.05.43-6.5,4.34-10.46,7.49a185.74,185.74,0,0,0-28.59,28.58c-4.72,6-7.54,10.08-7.84,11.42-.46,2-.25,2.24,8.25,10.79l8,8-.91,1.52c-1.3,2.18-4.88,9.39-6.35,12.82a134.43,134.43,0,0,0-5.15,14.09c-.74,2.36-1.42,4.57-1.53,4.87l-.22.56-11.25,0c-12.31,0-12,0-13.23,1.57-.86,1.17-2.48,10.81-3.4,20.13a209.42,209.42,0,0,0,0,27.67c.92,9.32,2.54,19,3.43,20.16,1.17,1.57.91,1.54,13.2,1.54l11.25,0,.22.56c.11.3.79,2.49,1.53,4.87A133.61,133.61,0,0,0,374.24,539c1.47,3.45,5.05,10.66,6.35,12.82l.91,1.52-7.82,7.87c-4.31,4.32-8,8.13-8.12,8.43a5.07,5.07,0,0,0,.07,3.45,105.61,105.61,0,0,0,7.49,10.46,185.29,185.29,0,0,0,28.59,28.58c6,4.73,10.07,7.54,11.42,7.85,2,.46,2.23.25,10.79-8.25l8-8,1.53.91c2.18,1.3,9.39,4.87,12.82,6.35a132.8,132.8,0,0,0,14.09,5.15l4.87,1.52.56.23,0,11.25c0,12.31,0,12,1.58,13.22,1.16.87,10.81,2.49,20.13,3.4a209.42,209.42,0,0,0,27.67,0c9.31-.91,19-2.53,20.15-3.42,1.58-1.17,1.55-.92,1.55-13.2l0-11.25.55-.23,4.88-1.52A134.43,134.43,0,0,0,556.43,611c3.45-1.48,10.66-5.05,12.82-6.35l1.52-.91,7.87,7.82c4.34,4.31,8.12,8,8.43,8.12a5.07,5.07,0,0,0,3.45-.08c1-.43,6.5-4.34,10.46-7.49a185.23,185.23,0,0,0,28.58-28.58c4.72-6,7.54-10.08,7.84-11.42.46-2,.26-2.24-8.25-10.79l-8-8,.92-1.52c1.29-2.18,4.87-9.39,6.34-12.82a133.63,133.63,0,0,0,5.16-14.09c.73-2.38,1.42-4.57,1.52-4.87l.23-.56,11.24,0c12.31,0,12,0,13.23-1.57.86-1.17,2.49-10.81,3.4-20.13a209.42,209.42,0,0,0,0-27.67c-.91-9.32-2.54-19-3.43-20.15-1.16-1.58-.91-1.55-13.2-1.55l-11.24,0-.23-.56c-.1-.3-.79-2.51-1.52-4.87a134.45,134.45,0,0,0-5.16-14.09c-1.47-3.45-5.05-10.66-6.34-12.82l-.92-1.52,7.82-7.87c4.32-4.34,8-8.12,8.12-8.43a5,5,0,0,0-.07-3.45c-.43-1-4.34-6.5-7.49-10.46A185.67,185.67,0,0,0,601,355.66c-6-4.72-10.08-7.54-11.43-7.85-2-.45-2.23-.25-10.78,8.25l-8,8-1.52-.91c-2.19-1.29-9.4-4.87-12.82-6.35a134.43,134.43,0,0,0-14.09-5.15l-4.88-1.52-.55-.23,0-11.25c0-12.31,0-12-1.57-13.22-1.17-.86-11-2.51-19.88-3.35A232.64,232.64,0,0,0,492,321.67ZM508.78,409c25.82,2.33,49.12,18.7,60.49,42.49a73.17,73.17,0,0,1,7.19,28.38,74.74,74.74,0,0,1-17,51.71,75.53,75.53,0,0,1-48.26,26.91,89.78,89.78,0,0,1-19.8,0,75.58,75.58,0,0,1-64.73-64.73,88.57,88.57,0,0,1,0-19.8,75.5,75.5,0,0,1,26.91-48.26C469.33,412.9,488.24,407.16,508.78,409Z" transform="translate(8.02 4.44)"/><path class="j" d="M495.76,437.8a46.57,46.57,0,0,0-40.49,40.75,39.64,39.64,0,0,0,0,10.66A46.5,46.5,0,0,0,496,530a39.64,39.64,0,0,0,10.66,0,46.78,46.78,0,0,0,37.95-29.29,50.62,50.62,0,0,0,3.18-16.78,48.94,48.94,0,0,0-5-20.95,47.78,47.78,0,0,0-20.49-20.48A47.15,47.15,0,0,0,495.76,437.8Z" transform="translate(8.02 4.44)"/></svg>